<svg width="192" height="88" viewBox="0 0 192 88" fill="none" xmlns="http://www.w3.org/2000/svg">
<path d="M94.5617 17.3501C97.3231 17.3501 99.5617 15.1115 99.5617 12.3501C99.5617 9.58867 97.3231 7.3501 94.5617 7.3501V17.3501ZM146.875 58.5987C146.875 55.8373 144.636 53.5987 141.875 53.5987C139.114 53.5987 136.875 55.8373 136.875 58.5987H146.875ZM94.5617 7.3501H46.375V17.3501H94.5617V7.3501ZM36.375 17.3501V65.9751H46.375V17.3501H36.375ZM46.375 75.9751H136.875V65.9751H46.375V75.9751ZM146.875 65.9751V58.5987H136.875V65.9751H146.875ZM136.875 75.9751C142.398 75.9751 146.875 71.4979 146.875 65.9751H136.875L136.875 65.9751V75.9751ZM36.375 65.9751C36.375 71.4979 40.8522 75.9751 46.375 75.9751V65.9751L46.375 65.9751H36.375ZM46.375 7.3501C40.8522 7.3501 36.375 11.8272 36.375 17.3501H46.375L46.375 17.3501V7.3501Z" fill="#181922"/>
<path d="M151.925 75.9751C154.686 75.9751 156.925 73.7365 156.925 70.9751C156.925 68.2137 154.686 65.9751 151.925 65.9751V75.9751ZM33 65.9751C30.2386 65.9751 28 68.2137 28 70.9751C28 73.7365 30.2386 75.9751 33 75.9751V65.9751ZM151.925 65.9751L33 65.9751V75.9751L151.925 75.9751V65.9751Z" fill="#181922"/>
<circle cx="110.025" cy="45.8252" r="5" fill="#1D85D0"/>
<path d="M121.8 44.1751C121.8 46.9365 124.039 49.1751 126.8 49.1751C129.561 49.1751 131.8 46.9365 131.8 44.1751H121.8ZM110.05 24.1001C107.289 24.1001 105.05 26.3387 105.05 29.1001C105.05 31.8615 107.289 34.1001 110.05 34.1001V24.1001ZM131.8 44.1751C131.8 38.7319 128.644 33.7218 124.87 30.2819C121.035 26.7871 115.698 24.1001 110.05 24.1001V34.1001C112.606 34.1001 115.644 35.4036 118.133 37.6727C120.683 39.9968 121.8 42.5241 121.8 44.1751H131.8Z" fill="#1D85D0"/>
<path d="M136.875 44.1751C136.875 46.9365 139.114 49.1751 141.875 49.1751C144.636 49.1751 146.875 46.9365 146.875 44.1751H136.875ZM110.05 7.3501C107.289 7.3501 105.05 9.58867 105.05 12.3501C105.05 15.1115 107.289 17.3501 110.05 17.3501V7.3501ZM146.875 44.1751C146.875 35.6238 144.519 26.4252 138.533 19.2713C132.421 11.9674 122.985 7.3501 110.05 7.3501V17.3501C120.409 17.3501 126.886 20.9351 130.863 25.6886C134.966 30.5921 136.875 37.306 136.875 44.1751H146.875Z" fill="#1D85D0"/>
<rect x="52" y="61" width="23.45" height="8.375" fill="#1D85D0"/>
</svg>

